<?xml version="1.0" encoding="UTF-8" standalone="no"?>
<svg width="200" height="200" viewBox="0 0 200 200" xmlns="http://www.w3.org/2000/svg">
  <defs>
    <linearGradient id="discordGradient" x1="0%" y1="0%" x2="100%" y2="100%">
      <stop offset="0%" style="stop-color:#7289DA;stop-opacity:1" />
      <stop offset="100%" style="stop-color:#4E5D94;stop-opacity:1" />
    </linearGradient>
    <filter id="discordGlow" x="-50%" y="-50%" width="200%" height="200%">
      <feGaussianBlur stdDeviation="3" result="blur" />
      <feComposite in="SourceGraphic" in2="blur" operator="over" />
    </filter>
  </defs>
  
  <!-- Background circle -->
  <circle cx="100" cy="100" r="90" fill="#f8f9fa" stroke="#e4e4e4" stroke-width="1" />
  
  <!-- Discord logo styling -->
  <path d="M150,120c0,10-20,30-50,30s-50-20-50-30c0-8.33,4.47-15.73,11.67-21.89
      c-0.5-1.14-0.92-2.32-1.25-3.55c-0.42-1.55-0.75-3.15-0.99-4.79C50.5,83.41,45,76.78,45,69
      c0-14.48,20.74-26.24,40-26.24c10.95,0,21.25,3.35,28.17,8.83C120.75,45.54,130.77,42,142,42
      c15.36,0,28,8.95,28,20c0,8.34-6.46,15.54-16.45,18.41c1.1,8.35,1.6,17.18,1.6,26.39
      c0,0.06-0.01,0.12-0.01,0.19C158.99,111.98,158.99,116,150,120z" 
      fill="#7289DA" opacity="0.1"/>
  
  <!-- The 'i' character -->
  <g transform="translate(100, 100)">
    <circle cx="0" cy="-40" r="12" fill="url(#discordGradient)" filter="url(#discordGlow)" />
    <rect x="-8" y="-25" width="16" height="70" rx="8" fill="url(#discordGradient)" filter="url(#discordGlow)" />
  </g>
  
  <!-- Discord-like elements -->
  <circle cx="80" cy="110" r="8" fill="none" stroke="#7289DA" stroke-width="2" />
  <circle cx="120" cy="110" r="8" fill="none" stroke="#7289DA" stroke-width="2" />
  <path d="M70,90c0,0,15-10,60,0" stroke="#7289DA" fill="none" stroke-width="2" stroke-linecap="round" />
</svg>
