<?xml version="1.0" encoding="UTF-8" standalone="no"?>
<svg width="200" height="200" viewBox="0 0 200 200" xmlns="http://www.w3.org/2000/svg">
  <defs>
    <linearGradient id="fbGradient" x1="0%" y1="0%" x2="100%" y2="100%">
      <stop offset="0%" style="stop-color:#4267B2;stop-opacity:1" />
      <stop offset="100%" style="stop-color:#2c4680;stop-opacity:1" />
    </linearGradient>
    <filter id="fbGlow" x="-50%" y="-50%" width="200%" height="200%">
      <feGaussianBlur stdDeviation="3" result="blur" />
      <feComposite in="SourceGraphic" in2="blur" operator="over" />
    </filter>
  </defs>
  
  <!-- Background circle -->
  <circle cx="100" cy="100" r="90" fill="#f8f9fa" stroke="#e4e4e4" stroke-width="1" />
  
  <!-- Facebook logo styling -->
  <path d="M150,100c0,27.61-22.39,50-50,50c-27.61,0-50-22.39-50-50c0-27.61,22.39-50,50-50C127.61,50,150,72.39,150,100z
   M117.51,69.48h-11c-8.63,0-10.3,4.1-10.3,10.13v13.3h20.61l-2.68,20.8h-17.93v53.36H75.22v-53.36H57.22V92.91h18V77.76
   c0-17.8,10.86-27.51,26.77-27.51c7.62,0,14.16,0.57,16.07,0.82V69.48z" fill="#4267B2" opacity="0.1" />
  
  <!-- The 'i' character -->
  <g transform="translate(100, 100)">
    <circle cx="0" cy="-40" r="12" fill="url(#fbGradient)" filter="url(#fbGlow)" />
    <rect x="-8" y="-25" width="16" height="70" rx="8" fill="url(#fbGradient)" filter="url(#fbGlow)" />
  </g>
  
  <!-- Facebook-like elements -->
  <path d="M120,80v-10c0-5,3-10,10-10h10" stroke="#4267B2" fill="none" stroke-width="2" stroke-linecap="round" />
  <path d="M120,105h15" stroke="#4267B2" fill="none" stroke-width="2" stroke-linecap="round" />
</svg>
