<?xml version="1.0" encoding="UTF-8" standalone="no"?>
<svg width="200" height="200" viewBox="0 0 200 200" xmlns="http://www.w3.org/2000/svg">
  <defs>
    <linearGradient id="iGradient" x1="0%" y1="0%" x2="100%" y2="100%">
      <stop offset="0%" style="stop-color:#4a2aea;stop-opacity:1" />
      <stop offset="100%" style="stop-color:#7209b7;stop-opacity:1" />
    </linearGradient>
    <filter id="glow" x="-50%" y="-50%" width="200%" height="200%">
      <feGaussianBlur stdDeviation="4" result="blur" />
      <feComposite in="SourceGraphic" in2="blur" operator="over" />
    </filter>
  </defs>
  
  <!-- Background circle -->
  <circle cx="100" cy="100" r="90" fill="#f8f9fa" stroke="#e4e4e4" stroke-width="1" />
  
  <!-- GitHub-inspired octocat silhouette -->
  <path d="M100,50 C73.5,50 52,71.5 52,98 C52,119.5 65.5,137.5 84.5,144 C87,144.5 88,143 88,141.5 C88,140 88,136 88,132 C74,135 71,125 71,125 C68.5,118.5 65,116.5 65,116.5 C60,113 65.5,113 65.5,113 C71,113.5 73,119 73,119 C78,128 86,125.5 88.5,124 C89,120 90.5,117.5 92,116 C81,114.5 69.5,109.5 69.5,91 C69.5,84.5 71.5,79 74,75 C73.5,73.5 71.5,67.5 74.5,60 C74.5,60 79,58.5 88,64.5 C92,63.5 96.5,63 101,63 C105.5,63 110,63.5 114,64.5 C123,58.5 127.5,60 127.5,60 C130.5,67.5 128.5,73.5 128,75 C130.5,79 132.5,84.5 132.5,91 C132.5,109.5 121,114.5 110,116 C112,117.5 114,121 114,126.5 C114,134.5 114,139.5 114,141.5 C114,143 115,144.5 117.5,144 C136.5,137.5 150,119.5 150,98 C150,71.5 128.5,50 102,50 z" 
        fill="#333333" opacity="0.1" />
  
  <!-- The 'i' character -->
  <g transform="translate(100, 100)">
    <circle cx="0" cy="-40" r="12" fill="url(#iGradient)" filter="url(#glow)" />
    <rect x="-8" y="-25" width="16" height="70" rx="8" fill="url(#iGradient)" filter="url(#glow)" />
  </g>
  
  <!-- Decorative elements -->
  <circle cx="100" cy="100" r="65" fill="none" stroke="url(#iGradient)" stroke-width="1.5" stroke-dasharray="4,2" />
  
  <!-- Dots resembling code symbols -->
  <circle cx="65" cy="60" r="3" fill="#4a2aea" opacity="0.7" />
  <circle cx="140" cy="70" r="3" fill="#7209b7" opacity="0.7" />
  <circle cx="55" cy="130" r="3" fill="#4a2aea" opacity="0.7" />
  <circle cx="130" cy="140" r="3" fill="#7209b7" opacity="0.7" />
</svg>
