<?xml version="1.0" encoding="UTF-8" standalone="no"?>
<svg width="200" height="200" viewBox="0 0 200 200" xmlns="http://www.w3.org/2000/svg">
  <defs>
    <linearGradient id="skypeGradient" x1="0%" y1="0%" x2="100%" y2="100%">
      <stop offset="0%" style="stop-color:#00AFF0;stop-opacity:1" />
      <stop offset="100%" style="stop-color:#0078D7;stop-opacity:1" />
    </linearGradient>
    <linearGradient id="crownGradient" x1="0%" y1="0%" x2="100%" y2="100%">
      <stop offset="0%" style="stop-color:#FFD700;stop-opacity:1" />
      <stop offset="100%" style="stop-color:#FFA500;stop-opacity:1" />
    </linearGradient>
    <filter id="skypeGlow" x="-50%" y="-50%" width="200%" height="200%">
      <feGaussianBlur stdDeviation="3" result="blur" />
      <feComposite in="SourceGraphic" in2="blur" operator="over" />
    </filter>
  </defs>
  
  <!-- Background circle -->
  <circle cx="100" cy="100" r="90" fill="#f8f9fa" stroke="#e4e4e4" stroke-width="1" />
  
  <!-- Skype logo styling -->
  <path d="M100,50C73.5,50,52,71.5,52,98c0,5.07,0.79,9.95,2.25,14.53c-1.46,4.57-2.25,9.46-2.25,14.53
      c0,26.5,21.5,48,48,48c5.07,0,9.95-0.79,14.53-2.25c4.57,1.46,9.46,2.25,14.53,2.25c26.5,0,48-21.5,48-48
      c0-5.07-0.79-9.95-2.25-14.53c1.46-4.57,2.25-9.46,2.25-14.53c0-26.5-21.5-48-48-48
      c-5.07,0-9.95,0.79-14.53,2.25C109.95,50.79,105.07,50,100,50z" 
      fill="#00AFF0" opacity="0.1"/>
  
  <!-- The 'i' character with crown -->
  <g transform="translate(100, 100)">
    <!-- Crown -->
    <path d="M-15,-60 L-10,-50 L0,-55 L10,-50 L15,-60 L10,-45 L-10,-45 z" 
          fill="url(#crownGradient)" stroke="#FFA500" stroke-width="1" />
    <circle cx="0" cy="-60" r="3" fill="#FFD700" />
    <circle cx="-10" cy="-60" r="2" fill="#FFD700" />
    <circle cx="10" cy="-60" r="2" fill="#FFD700" />
    
    <!-- Letter i -->
    <circle cx="0" cy="-40" r="12" fill="url(#skypeGradient)" filter="url(#skypeGlow)" />
    <rect x="-8" y="-25" width="16" height="70" rx="8" fill="url(#skypeGradient)" filter="url(#skypeGlow)" />
  </g>
  
  <!-- Skype-like elements -->
  <circle cx="100" cy="100" r="30" fill="none" stroke="#00AFF0" stroke-width="2" />
  <path d="M85,100c0,0,5,15,30,0" stroke="#00AFF0" fill="none" stroke-width="2" stroke-linecap="round" />
</svg>
