<?xml version="1.0" encoding="UTF-8" standalone="no"?>
<svg width="200" height="200" viewBox="0 0 200 200" xmlns="http://www.w3.org/2000/svg">
  <defs>
    <linearGradient id="twitterGradient" x1="0%" y1="0%" x2="100%" y2="100%">
      <stop offset="0%" style="stop-color:#1DA1F2;stop-opacity:1" />
      <stop offset="100%" style="stop-color:#0d8bd9;stop-opacity:1" />
    </linearGradient>
    <filter id="twitterGlow" x="-50%" y="-50%" width="200%" height="200%">
      <feGaussianBlur stdDeviation="3" result="blur" />
      <feComposite in="SourceGraphic" in2="blur" operator="over" />
    </filter>
  </defs>
  
  <!-- Background circle -->
  <circle cx="100" cy="100" r="90" fill="#f8f9fa" stroke="#e4e4e4" stroke-width="1" />
  
  <!-- Twitter logo styling -->
  <path d="M153,78.3c-4.3,1.9-8.9,3.2-13.7,3.8c4.9-2.9,8.7-7.6,10.5-13.1c-4.6,2.7-9.7,4.7-15.1,5.8 c-4.3-4.6-10.5-7.5-17.3-7.5c-13.1,0-23.7,10.6-23.7,23.7c0,1.9,0.2,3.7,0.6,5.4c-19.7-1-37.1-10.4-48.8-24.8 c-2,3.5-3.2,7.6-3.2,11.9c0,8.2,4.2,15.4,10.5,19.7c-3.9-0.1-7.5-1.2-10.7-2.9v0.3c0,11.5,8.2,21.1,19,23.2 c-2,0.5-4.1,0.8-6.2,0.8c-1.5,0-3-0.1-4.4-0.4c3,9.4,11.8,16.3,22.2,16.5c-8.1,6.4-18.4,10.2-29.5,10.2c-1.9,0-3.8-0.1-5.7-0.3 c10.5,6.7,23,10.7,36.4,10.7c43.7,0,67.6-36.2,67.6-67.6c0-1,0-2.1-0.1-3.1C145.8,87.3,149.8,83,153,78.3z" 
        fill="#1DA1F2" opacity="0.1" />
  
  <!-- The 'i' character -->
  <g transform="translate(100, 100)">
    <circle cx="0" cy="-40" r="12" fill="url(#twitterGradient)" filter="url(#twitterGlow)" />
    <rect x="-8" y="-25" width="16" height="70" rx="8" fill="url(#twitterGradient)" filter="url(#twitterGlow)" />
  </g>
  
  <!-- Twitter-like elements -->
  <path d="M135,84c0,0-8,3-12,0c0,0,5-10-5-15c0,0,5,0,10,3" stroke="#1DA1F2" fill="none" stroke-width="2" stroke-linecap="round" />
  <path d="M65,120c0,0,15-25,40-30" stroke="#1DA1F2" fill="none" stroke-width="2" stroke-linecap="round" stroke-dasharray="2,2" />
</svg>
